<?xml version="1.0" encoding="UTF-8"?><svg id="Layer_2" xmlns="http://www.w3.org/2000/svg" viewBox="0 0 71.98 96.45"><defs><style>.cls-1{stroke:#13c7e5;stroke-miterlimit:10;}.cls-1,.cls-2{fill:none;stroke-linecap:round;stroke-width:5px;}.cls-2{stroke:#3cd343;stroke-linejoin:round;}</style></defs><g id="Layer_2-2"><path class="cls-1" d="M37.51,55.7l6.65,3.84c.8.46.8,1.61,0,2.07l-15.15,8.75c-.8.46-1.79-.11-1.79-1.03v-20.28c0-8.9,6.53-16.11,14.59-16.11,4.75,0,8.42,2.15,11.64,6.39,3.49,4.59,5.58,11.58,5.58,18.63v4.81c0,17.23-12.66,31.19-28.27,31.19S2.5,79.98,2.5,62.75v-4.81c0-15.74,10.56-28.75,24.28-30.89"/><path class="cls-2" d="M46.55,6.43h1.71c10.38,0,18.8,8.42,18.8,18.8v1.71h-1.71c-10.38,0-18.8-8.42-18.8-18.8v-1.71h0Z" transform="translate(88.43 -33.37) rotate(105.92)"/><path class="cls-2" d="M24.08,4.5h1.17c7.06,0,12.8,5.73,12.8,12.8v1.17h-1.17c-7.06,0-12.8-5.73-12.8-12.8v-1.17h0Z" transform="translate(5.96 -10.12) rotate(20.42)"/></g></svg>