<svg width="85" height="30" viewBox="0 0 85 30" fill="none" xmlns="http://www.w3.org/2000/svg">
<g clip-path="url(#clip0_4430_517)">
<path d="M11.4364 17.1454L13.3457 18.2475C13.5754 18.3795 13.5754 18.7096 13.3457 18.8416L8.99586 21.3529C8.76617 21.4849 8.48192 21.3213 8.48192 21.0573V15.2368C8.48192 12.6824 10.3568 10.6131 12.671 10.6131C14.0348 10.6131 15.0885 11.2302 16.013 12.4471C17.015 13.7644 17.6151 15.7706 17.6151 17.794V19.1745C17.6151 24.1196 13.9802 28.1263 9.49832 28.1263C5.01643 28.1263 1.3844 24.1139 1.3844 19.1688V17.7883C1.3844 13.2708 4.41635 9.53682 8.35559 8.92262" stroke="#13C7E5" stroke-width="2" stroke-miterlimit="10" stroke-linecap="round"/>
<path d="M20.615 3.92322L20.4803 4.39518C19.6628 7.26005 16.6749 8.9211 13.809 8.10393L13.3368 7.96932L13.4715 7.49736C14.289 4.63249 17.2769 2.97144 20.1429 3.7886L20.615 3.92322Z" stroke="#3CD343" stroke-width="2" stroke-linecap="round" stroke-linejoin="round"/>
<path d="M8.40637 1.87624L8.72119 1.9934C10.6209 2.70036 11.5913 4.81635 10.8831 6.71798L10.7659 7.03268L10.4511 6.91552C8.55142 6.20855 7.58093 4.09256 8.28917 2.19094L8.40637 1.87624Z" stroke="#3CD343" stroke-width="2" stroke-linecap="round" stroke-linejoin="round"/>
</g>
<path d="M25.822 26.635H27.649V28H22.42V26.635H24.037V18.865H22.42V17.5H25.423L25.675 18.613C26.151 18.347 26.536 18.144 26.83 18.004C27.124 17.85 27.544 17.696 28.09 17.542C28.65 17.374 29.189 17.29 29.707 17.29L30.883 17.605L30.4 19.327L29.455 19.075C28.279 19.075 27.068 19.369 25.822 19.957V26.635ZM31.5739 22.75C31.5739 21.168 31.9939 19.866 32.8339 18.844C33.6879 17.808 34.8219 17.29 36.2359 17.29C37.6499 17.29 38.8329 17.577 39.7849 18.151V20.65H38.3149V19.243C37.7129 18.991 37.0759 18.865 36.4039 18.865C35.4379 18.865 34.6889 19.229 34.1569 19.957C33.6249 20.685 33.3589 21.616 33.3589 22.75C33.3589 23.884 33.6249 24.815 34.1569 25.543C34.6889 26.271 35.4379 26.635 36.4039 26.635C36.9499 26.635 37.4469 26.572 37.8949 26.446C38.3429 26.306 38.6439 26.194 38.7979 26.11C38.9519 26.012 39.1899 25.851 39.5119 25.627L40.2889 26.803C39.2949 27.741 38.0139 28.21 36.4459 28.21C34.8919 28.21 33.6879 27.699 32.8339 26.677C31.9939 25.641 31.5739 24.332 31.5739 22.75ZM44.4226 26.635H46.2496V28H41.0206V26.635H42.6376V13.615H41.0206V12.25H44.4226V18.529C45.8646 17.703 47.1736 17.29 48.3496 17.29C49.5256 17.29 50.3376 17.647 50.7856 18.361C51.2476 19.075 51.4786 20.062 51.4786 21.322V26.74H53.2006V27.622C52.6826 27.944 52.0806 28.105 51.3946 28.105C50.7226 28.105 50.2676 27.993 50.0296 27.769C49.8056 27.531 49.6936 27.153 49.6936 26.635V21.322C49.6936 20.51 49.5886 19.901 49.3786 19.495C49.1686 19.075 48.6856 18.865 47.9296 18.865C47.1736 18.865 46.0046 19.285 44.4226 20.125V26.635ZM57.135 28.21C56.169 28.21 55.413 27.937 54.867 27.391C54.321 26.831 54.048 26.089 54.048 25.165C54.048 24.227 54.412 23.443 55.14 22.813C55.868 22.183 56.946 21.868 58.374 21.868H60.663V20.797C60.663 19.509 60.047 18.865 58.815 18.865C57.779 18.865 56.827 18.991 55.959 19.243V20.65H54.489V18.151C55.119 17.885 55.861 17.675 56.715 17.521C57.583 17.367 58.304 17.29 58.878 17.29C59.998 17.29 60.873 17.612 61.503 18.256C62.133 18.886 62.448 19.733 62.448 20.797V26.74H64.17V27.622C63.652 27.944 63.057 28.105 62.385 28.105C61.713 28.105 61.258 27.993 61.02 27.769C60.782 27.545 60.663 27.167 60.663 26.635C59.613 27.685 58.437 28.21 57.135 28.21ZM57.324 26.635C58.528 26.635 59.641 25.956 60.663 24.598V23.254H58.353C57.499 23.254 56.862 23.422 56.442 23.758C56.036 24.094 55.833 24.521 55.833 25.039C55.833 25.543 55.959 25.935 56.211 26.215C56.463 26.495 56.834 26.635 57.324 26.635ZM68.2116 26.635H70.0386V28H64.8096V26.635H66.4266V18.865H64.8096V17.5H67.8126L68.0646 18.613C68.5406 18.347 68.9256 18.144 69.2196 18.004C69.5136 17.85 69.9336 17.696 70.4796 17.542C71.0396 17.374 71.5786 17.29 72.0966 17.29L73.2726 17.605L72.7896 19.327L71.8446 19.075C70.6686 19.075 69.4576 19.369 68.2116 19.957V26.635ZM82.9935 12.25V26.74H84.7155V27.622C84.1975 27.944 83.6095 28.105 82.9515 28.105C82.2935 28.105 81.8385 28.014 81.5865 27.832C81.3485 27.636 81.2225 27.307 81.2085 26.845C80.3825 27.755 79.3255 28.21 78.0375 28.21C76.7495 28.21 75.7485 27.706 75.0345 26.698C74.3205 25.676 73.9635 24.374 73.9635 22.792C73.9635 21.196 74.3835 19.88 75.2235 18.844C76.0635 17.808 77.2605 17.29 78.8145 17.29C79.5705 17.29 80.3685 17.437 81.2085 17.731V13.615H79.5915V12.25H82.9935ZM75.7485 22.687C75.7485 23.835 75.9795 24.78 76.4415 25.522C76.9035 26.264 77.5475 26.635 78.3735 26.635C79.2135 26.635 79.8925 26.306 80.4105 25.648C80.9425 24.99 81.2085 24.199 81.2085 23.275V19.537C80.4665 19.089 79.6615 18.865 78.7935 18.865C77.9395 18.865 77.2185 19.215 76.6305 19.915C76.0425 20.601 75.7485 21.525 75.7485 22.687Z" fill="white"/>
<defs>
<clipPath id="clip0_4430_517">
<rect width="22" height="29" fill="white" transform="translate(0 0.5)"/>
</clipPath>
</defs>
</svg>
