<?xml version="1.0" encoding="utf-8"?>
<!-- Generator: Adobe Illustrator 25.2.0, SVG Export Plug-In . SVG Version: 6.00 Build 0)  -->
<svg version="1.1" id="Layer_1" xmlns="http://www.w3.org/2000/svg" xmlns:xlink="http://www.w3.org/1999/xlink" x="0px" y="0px"
	 viewBox="0 0 577 124" style="enable-background:new 0 0 577 124;" xml:space="preserve">
<style type="text/css">
	.st0{fill:#FFFFFF;}
	.st1{fill:none;stroke:#FFFFFF;stroke-width:5;stroke-linecap:round;stroke-linejoin:round;stroke-miterlimit:10;}
	.st2{fill:none;stroke:#FFFFFF;stroke-width:5;stroke-linecap:square;stroke-linejoin:round;stroke-miterlimit:10;}
</style>
<g>
	<g>
		<path class="st0" d="M142.49,28.34h9.79c1.17,0,1.98,0.44,2.42,1.32l31.13,62.92c0.15,0.29,0.22,0.62,0.22,0.99
			c0,1.25-0.59,2.09-1.76,2.53c-0.44,0.15-0.84,0.22-1.21,0.22c-1.25,0-2.09-0.48-2.53-1.43l-10.23-20.68h-36.85l-10.23,20.68
			c-0.66,1.47-1.91,1.87-3.74,1.21c-1.17-0.44-1.76-1.25-1.76-2.42c0-0.29,0.07-0.62,0.22-0.99l29.26-59.18h-4.73
			c-0.73,0-1.34-0.24-1.81-0.71c-0.48-0.48-0.71-1.08-0.71-1.82c0-0.73,0.24-1.36,0.71-1.87C141.15,28.6,141.76,28.34,142.49,28.34z
			 M151.84,36.15l-15.95,33h32.01L151.84,36.15z"/>
		<path class="st0" d="M190.67,90.93v-8.91c0-0.73,0.29-1.34,0.88-1.81c0.59-0.48,1.28-0.72,2.09-0.72c0.81,0,1.5,0.24,2.09,0.72
			c0.59,0.48,0.88,1.08,0.88,1.81v7.48c3.52,1.17,7.19,1.76,11,1.76c8.36,0,12.54-2.35,12.54-7.04c0-3.52-3.92-6.12-11.77-7.81
			c-0.37-0.07-1.17-0.26-2.42-0.55c-1.25-0.29-2.27-0.53-3.08-0.71c-0.81-0.18-2.15-0.62-4.02-1.32c-1.87-0.7-3.21-1.41-4.01-2.15
			c-2.2-1.98-3.3-4.42-3.3-7.32c0-2.9,0.97-5.24,2.92-7.04c1.94-1.8,4.09-2.97,6.44-3.52c2.35-0.55,4.91-0.83,7.7-0.83
			c5.13,0,9.86,0.99,14.19,2.97c1.32,0.59,1.98,1.39,1.98,2.42v8.47c0,0.73-0.29,1.34-0.88,1.81c-0.59,0.48-1.28,0.72-2.09,0.72
			c-0.81,0-1.5-0.24-2.09-0.72c-0.59-0.48-0.88-1.08-0.88-1.81V59.8c-2.93-1.17-6.34-1.76-10.23-1.76c-7.48,0-11.22,2.13-11.22,6.38
			c0,1.54,0.5,2.6,1.48,3.19c0.99,0.59,1.72,1.03,2.2,1.32c0.48,0.29,1.34,0.59,2.58,0.88c1.76,0.44,3.56,0.84,5.39,1.21
			c1.83,0.37,3.34,0.7,4.51,0.99c1.17,0.29,2.66,0.79,4.46,1.49c1.8,0.7,3.21,1.48,4.23,2.36c2.57,2.05,3.85,4.73,3.85,8.03
			s-1.08,5.92-3.25,7.87c-2.16,1.94-4.51,3.19-7.04,3.74c-2.53,0.55-5.26,0.82-8.19,0.82c-5.79,0-10.78-0.95-14.96-2.86
			C191.33,92.88,190.67,92.03,190.67,90.93z"/>
		<path class="st0" d="M246.99,61.89c3.81-5.94,8.89-8.91,15.23-8.91c6.34,0,11.18,2.04,14.52,6.11c3.34,4.07,5,9.22,5,15.46
			c0,6.23-1.71,11.42-5.12,15.56c-3.41,4.14-8.14,6.21-14.19,6.21c-6.05,0-11.06-2.09-15.02-6.27v27.83c0,0.73-0.29,1.34-0.88,1.81
			c-0.59,0.48-1.28,0.72-2.09,0.72c-0.81,0-1.5-0.24-2.09-0.72c-0.59-0.48-0.88-1.08-0.88-1.81V61.34c0-1.39-0.7-2.09-2.09-2.09
			h-5.17c-0.73,0-1.34-0.24-1.81-0.71c-0.48-0.48-0.71-1.08-0.71-1.82c0-0.73,0.24-1.36,0.71-1.87c0.48-0.51,1.08-0.77,1.81-0.77
			h5.94C244.86,54.08,247.14,56.69,246.99,61.89z M247.43,84.66c4.69,4.4,9.39,6.6,14.08,6.6c4.69,0,8.27-1.54,10.72-4.62
			s3.69-7.15,3.69-12.21s-1.21-9.06-3.63-11.99c-2.42-2.93-5.76-4.4-10.01-4.4c-6.23,0-11.18,3.48-14.85,10.45V84.66z"/>
		<path class="st0" d="M302.87,93.79c0,0.73-0.29,1.34-0.88,1.81c-0.59,0.48-1.28,0.71-2.09,0.71c-0.81,0-1.5-0.24-2.09-0.71
			c-0.59-0.48-0.88-1.08-0.88-1.81V59.25h-7.26c-0.73,0-1.34-0.24-1.82-0.71c-0.48-0.48-0.71-1.08-0.71-1.82
			c0-0.73,0.24-1.36,0.71-1.87c0.48-0.51,1.08-0.77,1.82-0.77h10.67c1.69,0,2.53,0.84,2.53,2.53V93.79z M296.71,37.58
			c-0.66-0.73-0.99-1.61-0.99-2.64c0-1.03,0.33-1.91,0.99-2.64c0.66-0.73,1.58-1.1,2.75-1.1c1.17,0,2.11,0.37,2.8,1.1
			c0.7,0.73,1.04,1.61,1.04,2.64c0,1.03-0.35,1.91-1.04,2.64c-0.7,0.73-1.63,1.1-2.8,1.1C298.29,38.68,297.37,38.32,296.71,37.58z"
			/>
		<path class="st0" d="M313.43,54.08h5.61c4.62,0,7,2.49,7.15,7.48c3.96-5.72,8.65-8.58,14.08-8.58c3.08,0,5.68,0.59,7.81,1.76
			c1.03,0.59,1.54,1.36,1.54,2.31v9.24c0,0.73-0.29,1.34-0.88,1.81c-0.59,0.48-1.28,0.71-2.09,0.71c-0.81,0-1.5-0.24-2.09-0.71
			c-0.59-0.48-0.88-1.08-0.88-1.81v-7.7c-0.95-0.37-2.38-0.55-4.29-0.55c-1.91,0-4.07,0.9-6.49,2.69c-2.42,1.8-4.51,4.46-6.27,7.98
			v25.08c0,0.73-0.29,1.34-0.88,1.81c-0.59,0.48-1.28,0.71-2.09,0.71c-0.81,0-1.5-0.24-2.09-0.71c-0.59-0.48-0.88-1.08-0.88-1.81
			V61.34c0-1.39-0.73-2.09-2.2-2.09h-5.06c-0.73,0-1.34-0.24-1.82-0.71c-0.48-0.48-0.71-1.08-0.71-1.82c0-0.73,0.24-1.36,0.71-1.87
			C312.09,54.34,312.7,54.08,313.43,54.08z"/>
		<path class="st0" d="M389.88,84.66c0.51-0.88,1.1-1.32,1.76-1.32s1.32,0.17,1.98,0.5c0.66,0.33,1.12,0.84,1.38,1.54
			c0.26,0.7,0.2,1.34-0.16,1.92c-3.74,6.01-9.68,9.02-17.82,9.02c-6.45,0-11.53-2.07-15.24-6.21c-3.7-4.14-5.55-9.37-5.55-15.67
			c0-6.31,1.91-11.46,5.72-15.46c3.81-4,8.84-6,15.07-6c6.23,0,10.87,1.87,13.92,5.61c3.04,3.74,4.56,8.73,4.56,14.96
			c0,1.69-0.95,2.53-2.86,2.53l-30.47,0.11c0.29,4.55,1.78,8.2,4.46,10.95c2.68,2.75,6.14,4.12,10.4,4.12
			C382.73,91.26,387.02,89.06,389.88,84.66z M386.19,61.56c-2.09-2.35-5.1-3.52-9.02-3.52c-3.92,0-7.21,1.19-9.84,3.57
			c-2.64,2.38-4.29,5.52-4.95,9.41h27.28C389.44,67.06,388.28,63.91,386.19,61.56z"/>
		<path class="st0" d="M405.06,90.93v-8.91c0-0.73,0.29-1.34,0.88-1.81c0.59-0.48,1.28-0.72,2.09-0.72c0.81,0,1.5,0.24,2.09,0.72
			c0.59,0.48,0.88,1.08,0.88,1.81v7.48c3.52,1.17,7.19,1.76,11,1.76c8.36,0,12.54-2.35,12.54-7.04c0-3.52-3.92-6.12-11.77-7.81
			c-0.37-0.07-1.17-0.26-2.42-0.55c-1.25-0.29-2.27-0.53-3.08-0.71c-0.81-0.18-2.14-0.62-4.01-1.32c-1.87-0.7-3.21-1.41-4.01-2.15
			c-2.2-1.98-3.3-4.42-3.3-7.32c0-2.9,0.97-5.24,2.92-7.04c1.94-1.8,4.09-2.97,6.43-3.52c2.35-0.55,4.91-0.83,7.7-0.83
			c5.13,0,9.86,0.99,14.19,2.97c1.32,0.59,1.98,1.39,1.98,2.42v8.47c0,0.73-0.29,1.34-0.88,1.81c-0.59,0.48-1.28,0.72-2.09,0.72
			c-0.81,0-1.5-0.24-2.09-0.72c-0.59-0.48-0.88-1.08-0.88-1.81V59.8c-2.93-1.17-6.34-1.76-10.23-1.76c-7.48,0-11.22,2.13-11.22,6.38
			c0,1.54,0.5,2.6,1.49,3.19c0.99,0.59,1.72,1.03,2.2,1.32c0.48,0.29,1.34,0.59,2.58,0.88c1.76,0.44,3.56,0.84,5.39,1.21
			c1.83,0.37,3.34,0.7,4.51,0.99c1.17,0.29,2.66,0.79,4.45,1.49c1.8,0.7,3.21,1.48,4.24,2.36c2.57,2.05,3.85,4.73,3.85,8.03
			s-1.08,5.92-3.25,7.87c-2.16,1.94-4.51,3.19-7.04,3.74c-2.53,0.55-5.26,0.82-8.2,0.82c-5.79,0-10.78-0.95-14.96-2.86
			C405.72,92.88,405.06,92.03,405.06,90.93z"/>
		<path class="st0" d="M458.63,93.79c0,0.73-0.29,1.34-0.88,1.81c-0.59,0.48-1.28,0.71-2.09,0.71c-0.81,0-1.5-0.24-2.09-0.71
			c-0.59-0.48-0.88-1.08-0.88-1.81v-75.9h-7.26c-0.73,0-1.34-0.24-1.82-0.71c-0.48-0.48-0.71-1.08-0.71-1.82
			c0-0.73,0.24-1.36,0.71-1.87c0.48-0.51,1.08-0.77,1.82-0.77h10.34c0.73,0,1.39,0.26,1.98,0.77c0.59,0.51,0.88,1.14,0.88,1.87
			v46.09c4.55-5.79,9.94-8.69,16.17-8.69c4.11,0,7.39,1.04,9.84,3.13c2.46,2.09,3.68,5,3.68,8.75v23.43c0,1.32,0.99,1.98,2.97,1.98
			h4.29c0.73,0,1.34,0.26,1.82,0.77c0.48,0.51,0.71,1.14,0.71,1.87c0,0.73-0.24,1.34-0.71,1.82c-0.48,0.48-1.08,0.71-1.82,0.71
			h-4.29c-5.94,0-8.91-2.38-8.91-7.15V64.64c0-4.55-2.53-6.82-7.59-6.82c-6.75,0-12.14,3.59-16.17,10.78V93.79z"/>
		<path class="st0" d="M514.61,93.79c0,0.73-0.29,1.34-0.88,1.81c-0.59,0.48-1.28,0.71-2.09,0.71c-0.81,0-1.5-0.24-2.09-0.71
			c-0.59-0.48-0.88-1.08-0.88-1.81V59.25h-7.26c-0.73,0-1.34-0.24-1.82-0.71c-0.48-0.48-0.71-1.08-0.71-1.82
			c0-0.73,0.24-1.36,0.71-1.87c0.48-0.51,1.08-0.77,1.82-0.77h10.67c1.69,0,2.53,0.84,2.53,2.53V93.79z M508.45,37.58
			c-0.66-0.73-0.99-1.61-0.99-2.64c0-1.03,0.33-1.91,0.99-2.64c0.66-0.73,1.58-1.1,2.75-1.1c1.17,0,2.11,0.37,2.8,1.1
			c0.7,0.73,1.04,1.61,1.04,2.64c0,1.03-0.35,1.91-1.04,2.64c-0.7,0.73-1.63,1.1-2.8,1.1C510.03,38.68,509.11,38.32,508.45,37.58z"
			/>
		<path class="st0" d="M538.04,61.89c3.81-5.94,8.89-8.91,15.24-8.91c6.34,0,11.18,2.04,14.52,6.11c3.34,4.07,5,9.22,5,15.46
			c0,6.23-1.71,11.42-5.12,15.56c-3.41,4.14-8.14,6.21-14.19,6.21c-6.05,0-11.05-2.09-15.01-6.27v27.83c0,0.73-0.29,1.34-0.88,1.81
			c-0.59,0.48-1.28,0.72-2.09,0.72c-0.81,0-1.5-0.24-2.09-0.72c-0.59-0.48-0.88-1.08-0.88-1.81V61.34c0-1.39-0.7-2.09-2.09-2.09
			h-5.17c-0.73,0-1.34-0.24-1.81-0.71c-0.48-0.48-0.72-1.08-0.72-1.82c0-0.73,0.24-1.36,0.72-1.87c0.48-0.51,1.08-0.77,1.81-0.77
			h5.94C535.92,54.08,538.19,56.69,538.04,61.89z M538.48,84.66c4.69,4.4,9.39,6.6,14.08,6.6c4.69,0,8.27-1.54,10.72-4.62
			c2.46-3.08,3.69-7.15,3.69-12.21s-1.21-9.06-3.63-11.99c-2.42-2.93-5.76-4.4-10.01-4.4c-6.23,0-11.18,3.48-14.85,10.45V84.66z"/>
	</g>
	<g>
		<path class="st1" d="M31.2,53.55c-5.03-2.04-10.97-1.08-15.11,2.05c-1.64,1.24-4.07-0.06-4.24-2.11c-0.4-4.75,2-10.43,5.73-14.15
			c4.91-4.91,11.95-6.39,18.14-4.45"/>
		<path class="st1" d="M58.07,79.9c2.59,5.21,1.72,11.67-1.61,16.08c-1.24,1.64,0.06,4.07,2.11,4.24c4.75,0.4,10.43-2,14.15-5.73
			c4.85-4.85,6.36-11.78,4.52-17.93"/>
		<line class="st1" x1="22.99" y1="71.09" x2="4.81" y2="89.27"/>
		<line class="st1" x1="33.49" y1="77.73" x2="32" y2="79.21"/>
		<line class="st1" x1="26.14" y1="85.08" x2="4.43" y2="106.79"/>
		<line class="st1" x1="39.75" y1="88.23" x2="21.57" y2="106.41"/>
		<path class="st2" d="M53.61,78.37l0.86,0.01c14.12,0.27,27.84-4.14,37.76-14.06c13.69-13.69,17.01-33.02,11.78-53.63
			c-0.51-2-2.22-3.59-4.23-4.01c-19.72-4.15-38.86-0.95-52.5,12.69c-9.95,9.95-14.85,23.24-14.85,37.11l0.06,1.1"/>
		<path class="st1" d="M51.75,81.18l0.51-0.51c1.16-1.16,1.16-3.03,0-4.19L34.73,58.96c-1.16-1.16-3.03-1.16-4.19,0l-0.51,0.51
			c-1.16,1.16-1.16,3.03,0,4.19l17.52,17.52C48.72,82.34,50.59,82.34,51.75,81.18z"/>
		<circle class="st1" cx="74.8" cy="36.42" r="11.58"/>
	</g>
</g>
</svg>
