<?xml version="1.0" encoding="UTF-8"?><svg id="Layer_2" xmlns="http://www.w3.org/2000/svg" viewBox="0 0 309.3 96.46"><defs><style>.cls-1{fill:#fff;}.cls-2{stroke:#13c7e5;stroke-miterlimit:10;}.cls-2,.cls-3{fill:none;stroke-linecap:round;stroke-width:5px;}.cls-3{stroke:#3cd343;stroke-linejoin:round;}</style></defs><g id="Layer_2-2"><path class="cls-1" d="M87.61,90.48h2.96c1.1,0,1.99.89,1.99,1.99v1.21c0,1.1-.89,1.99-1.99,1.99h-15.88c-1.1,0-1.99-.89-1.99-1.99v-1.21c0-1.1.89-1.99,1.99-1.99h2.16c1.1,0,1.99-.89,1.99-1.99v-25.54c0-1.1-.89-1.99-1.99-1.99h-2.16c-1.1,0-1.99-.89-1.99-1.99v-1.21c0-1.1.89-1.99,1.99-1.99h7.83c.93,0,1.73.64,1.94,1.55l.02.1c.29,1.28,1.73,1.93,2.89,1.31.79-.43,1.48-.79,2.08-1.09,1.12-.56,2.72-1.14,4.83-1.75,2-.58,3.93-.89,5.81-.91.19,0,.39.02.57.07l2.24.6c1.07.29,1.7,1.39,1.4,2.46l-.76,2.71c-.29,1.05-1.38,1.66-2.43,1.38l-1.42-.38c-.18-.05-.37-.07-.56-.07-4.01.04-8.12.98-12.34,2.82-.72.31-1.17,1.04-1.17,1.82v22.09c0,1.1.89,1.99,1.99,1.99Z"/><path class="cls-1" d="M107.48,75.72c0-6.01,1.61-10.97,4.83-14.88,3.22-3.91,7.51-5.86,12.88-5.86,4.84,0,8.97.88,12.38,2.65.67.35,1.1,1.03,1.1,1.78v6.34c0,1.1-.89,1.99-1.99,1.99h-1.61c-1.1,0-1.99-.89-1.99-1.99v-1.97c0-.86-.56-1.63-1.38-1.9-1.87-.61-3.83-.92-5.88-.92-3.67,0-6.52,1.38-8.54,4.15-2.02,2.77-3.03,6.3-3.03,10.61s1.01,7.84,3.03,10.61c2.02,2.77,4.87,4.15,8.54,4.15,2.07,0,3.96-.25,5.66-.76,1.7-.5,2.84-.93,3.43-1.28.28-.17.64-.39,1.07-.68.91-.6,2.15-.35,2.75.57l.87,1.32c.57.86.39,2.03-.42,2.66-3.55,2.77-7.94,4.15-13.17,4.15-5.93,0-10.5-1.95-13.72-5.86-3.22-3.91-4.83-8.87-4.83-14.88Z"/><path class="cls-1" d="M158.29,90.48h2.96c1.1,0,1.99.89,1.99,1.99v1.21c0,1.1-.89,1.99-1.99,1.99h-15.88c-1.1,0-1.99-.89-1.99-1.99v-1.21c0-1.1.89-1.99,1.99-1.99h2.16c1.1,0,1.99-.89,1.99-1.99v-45.48c0-1.1-.89-1.99-1.99-1.99h-2.16c-1.1,0-1.99-.89-1.99-1.99v-1.21c0-1.1.89-1.99,1.99-1.99h8.95c1.1,0,1.99.89,1.99,1.99v18.56c0,1.46,1.53,2.44,2.84,1.8,4.37-2.13,8.4-3.2,12.08-3.2,4.47,0,7.56,1.36,9.29,4.07,1.73,2.71,2.59,6.46,2.59,11.25v18.59c0,1.1.89,1.99,1.99,1.99h2.56c1.1,0,1.99.89,1.99,1.99v.18c0,.77-.44,1.47-1.13,1.8-1.69.81-3.59,1.22-5.69,1.22-2.58,0-4.31-.44-5.18-1.32s-1.32-2.3-1.32-4.27v-20.18c0-3.08-.4-5.41-1.2-6.98-.8-1.57-2.63-2.35-5.5-2.35-2.7,0-6.78,1.41-12.25,4.23-.66.34-1.07,1.03-1.07,1.77v21.54c0,1.1.89,1.99,1.99,1.99Z"/><path class="cls-1" d="M204.56,96.46c-3.67,0-6.54-1.05-8.62-3.15s-3.11-4.92-3.11-8.46,1.38-6.5,4.15-8.89c2.76-2.39,6.86-3.59,12.29-3.59h6.71c1.1,0,1.99-.89,1.99-1.99v-2.08c0-4.89-2.34-7.34-7.02-7.34-3.32,0-6.42.34-9.29,1.02-.91.22-1.56,1.01-1.56,1.95v1.82c0,1.1-.89,1.99-1.99,1.99h-1.61c-1.1,0-1.99-.89-1.99-1.99v-6.15c0-.84.53-1.59,1.32-1.88,2.1-.77,4.49-1.39,7.18-1.88,3.27-.58,6-.88,8.18-.88,4.25,0,7.58,1.21,9.97,3.63,2.39,2.42,3.59,5.65,3.59,9.69v20.59c0,1.1.89,1.99,1.99,1.99h2.56c1.1,0,1.99.89,1.99,1.99v.18c0,.77-.44,1.47-1.13,1.8-1.69.81-3.57,1.22-5.65,1.22-2.55,0-4.28-.43-5.19-1.28-.34-.32-.61-.72-.83-1.2-.54-1.23-2.02-1.68-3.09-.86-3.31,2.5-6.93,3.74-10.84,3.74ZM205.28,90.48c4.41,0,8.49-2.4,12.26-7.19.28-.35.42-.79.42-1.24v-2.43c0-1.1-.89-1.99-1.99-1.99h-6.79c-3.24,0-5.65.64-7.22,1.92-1.57,1.28-2.35,2.88-2.35,4.83s.48,3.44,1.44,4.51c.96,1.06,2.37,1.6,4.23,1.6Z"/><path class="cls-1" d="M248.59,90.48h2.96c1.1,0,1.99.89,1.99,1.99v1.21c0,1.1-.89,1.99-1.99,1.99h-15.88c-1.1,0-1.99-.89-1.99-1.99v-1.21c0-1.1.89-1.99,1.99-1.99h2.16c1.1,0,1.99-.89,1.99-1.99v-25.54c0-1.1-.89-1.99-1.99-1.99h-2.16c-1.1,0-1.99-.89-1.99-1.99v-1.21c0-1.1.89-1.99,1.99-1.99h7.83c.93,0,1.73.64,1.94,1.55l.02.1c.29,1.28,1.73,1.93,2.89,1.31.79-.43,1.48-.79,2.08-1.09,1.12-.56,2.72-1.14,4.83-1.75,2-.58,3.93-.89,5.81-.91.19,0,.39.02.57.07l2.24.6c1.07.29,1.7,1.39,1.4,2.46l-.76,2.71c-.29,1.05-1.38,1.66-2.43,1.38l-1.42-.38c-.18-.05-.37-.07-.56-.07-4.01.04-8.12.98-12.34,2.82-.72.31-1.17,1.04-1.17,1.82v22.09c0,1.1.89,1.99,1.99,1.99Z"/><path class="cls-1" d="M302.75,37.83v51.06c0,1.1.89,1.99,1.99,1.99h2.56c1.1,0,1.99.89,1.99,1.99v.18c0,.76-.44,1.47-1.12,1.8-1.68.81-3.54,1.22-5.58,1.22-2.5,0-4.21-.36-5.14-1.08-.35-.27-.64-.61-.86-1.03-.57-1.04-1.99-1.27-2.93-.56-2.72,2.04-5.97,3.06-9.73,3.06-4.89,0-8.7-1.93-11.41-5.78-2.71-3.86-4.07-8.8-4.07-14.84s1.6-11.02,4.79-14.96c3.19-3.93,7.74-5.9,13.64-5.9,2.1,0,4.29.3,6.57.9,1.27.34,2.53-.59,2.53-1.91v-10.96c0-1.1-.89-1.99-1.99-1.99h-2.16c-1.1,0-1.99-.89-1.99-1.99v-1.21c0-1.1.89-1.99,1.99-1.99h8.95c1.1,0,1.99.89,1.99,1.99ZM275.23,75.44c0,4.39.88,7.99,2.63,10.81,1.75,2.82,4.21,4.23,7.38,4.23s5.74-1.25,7.74-3.75c1.99-2.5,2.99-5.5,2.99-9.01v-13.03c0-.76-.44-1.44-1.11-1.79-2.5-1.29-5.18-1.93-8.02-1.93-3.27,0-6.02,1.32-8.26,3.95-2.23,2.63-3.35,6.14-3.35,10.53Z"/><path class="cls-2" d="M37.51,55.7l6.65,3.84c.8.46.8,1.61,0,2.07l-15.15,8.75c-.8.46-1.79-.11-1.79-1.03v-20.28c0-8.9,6.53-16.11,14.59-16.11,4.75,0,8.42,2.15,11.64,6.39,3.49,4.59,5.58,11.58,5.58,18.63v4.81c0,17.23-12.66,31.19-28.27,31.19S2.5,79.98,2.5,62.75v-4.81c0-15.74,10.56-28.75,24.28-30.89"/><path class="cls-3" d="M46.55,6.43h1.71c10.38,0,18.8,8.42,18.8,18.8v1.71h-1.71c-10.38,0-18.8-8.42-18.8-18.8v-1.71h0Z" transform="translate(88.43 -33.37) rotate(105.92)"/><path class="cls-3" d="M24.08,4.5h1.17c7.06,0,12.8,5.73,12.8,12.8v1.17h-1.17c-7.06,0-12.8-5.73-12.8-12.8v-1.17h0Z" transform="translate(5.96 -10.12) rotate(20.42)"/></g></svg>