<svg width="34" height="44" viewBox="0 0 34 44" fill="none" xmlns="http://www.w3.org/2000/svg">
<path d="M17.6546 25.2551L20.5186 26.9272C20.8631 27.1275 20.8631 27.6283 20.5186 27.8286L13.9939 31.6389C13.6493 31.8392 13.2229 31.591 13.2229 31.1904V22.3593C13.2229 18.4837 16.0353 15.344 19.5065 15.344C21.5522 15.344 23.1328 16.2802 24.5196 18.1266C26.0226 20.1253 26.9227 23.1692 26.9227 26.2392V28.3337C26.9227 35.8367 21.4704 41.9157 14.7475 41.9157C8.0247 41.9157 2.57666 35.828 2.57666 28.325V26.2305C2.57666 19.3764 7.12459 13.711 13.0334 12.7792" stroke="#13C7E5" stroke-width="2" stroke-miterlimit="10" stroke-linecap="round"/>
<path d="M31.4225 5.19385L31.2205 5.90992C29.9943 10.2566 25.5125 12.7768 21.2135 11.537L20.5053 11.3328L20.7073 10.6167C21.9335 6.26998 26.4154 3.74977 30.7143 4.9896L31.4225 5.19385Z" stroke="#3CD343" stroke-width="2" stroke-linecap="round" stroke-linejoin="round"/>
<path d="M13.1096 2.08809L13.5818 2.26585C16.4313 3.33848 17.8871 6.54895 16.8247 9.43418L16.6489 9.91165L16.1767 9.73389C13.3272 8.66126 11.8715 5.45079 12.9338 2.56556L13.1096 2.08809Z" stroke="#3CD343" stroke-width="2" stroke-linecap="round" stroke-linejoin="round"/>
</svg>
